{"title":"The Mill and the Cross 2011 R5 XviD - VISUALiSE ","uid":6788361,"size":1044613694,"categoryP":"video","categoryS":"movies","magnet":"?xt=urn:btih:082bd56ea66dbc21e400aa332134d79b22ecad76&amp;dn=The+Mill+and+the+Cross+2011+R5+XviD+-+VISUALiSE+&amp;tr=udp%3A%2F%2Ftracker.openbittorrent.com%3A80&amp;tr=udp%3A%2F%2Fopen.demonii.com%3A1337&amp;tr=udp%3A%2F%2Ftracker.coppersurfer.tk%3A6969&amp;tr=udp%3A%2F%2Fexodus.desync.com%3A6969","seeders":0,"leechers":1,"uploader":"HeroMaster","files":-1,"time":1320180974,"description":"The Mill and the Cross 2011 R5 XviD - VISUALiSE \n\n\nTitle: The Mill and the Cross 2011 R5 XviD - VISUALiSE\nFormat: Xvid\nLanguage: English\nSubtitles: No\nImdb: http://www.imdb.com/title/tt1324055/\n\nPlot:\nThe Mill and the Cross, based on a book by Michael Francis Gibson, \nis a moving-image tribute to the still image, with its ability to \n&quot;wrestle the senseless moment to the ground.&quot; The subject is The Way \nto Calvary, the year 1564, the place Flanders.\n\nSources:\nVideo: Russians - Many Thanks :D\nAudio: Russians - Many Thanks :D\n\nRelease Notes:\nThe Mill and the Cross 2011 R5 XviD - VISUALiSE\nStraight Forward rip from the dvd9 :P \nadded a few filters etc etc \n\nInfo:\nVideo\nID                               : 0\nFormat                           : MPEG-4 Visual\nFormat profile                   : Advanced Simple@L5\nFormat settings, BVOP            : 2\nFormat settings, QPel            : No\nFormat settings, GMC             : No warppoints\nFormat settings, Matrix          : Default (H.263)\nCodec ID                         : XVID\nCodec ID/Hint                    : XviD\nDuration                         : 1h 31mn\nBit rate                         : 1 379 Kbps\nWidth                            : 702 pixels\nHeight                           : 402 pixels\nDisplay aspect ratio             : 16:9\nFrame rate                       : 29.970 fps\nColor space                      : YUV\nChroma subsampling               : 4:2:0\nBit depth                        : 8 bits\nScan type                        : Progressive\nCompression mode                 : Lossy\nBits/(Pixel*Frame)               : 0.163\nStream size                      : 903 MiB (91%)\nWriting library                  : XviD 1.2.1 (UTC 2008-12-04)\n\nAudio:\nID                               : 1\nFormat                           : MPEG Audio\nFormat version                   : Version 1\nFormat profile                   : Layer 3\nCodec ID                         : 55\nCodec ID/Hint                    : MP3\nDuration                         : 1h 31mn\nBit rate mode                    : Constant\nBit rate                         : 128 Kbps\nChannel(s)                       : 2 channels\nSampling rate                    : 48.0 KHz\nCompression mode                 : Lossy\nDelay relative to video          : 33ms\nStream size                      : 83.8 MiB (8%)\nAlignment                        : Aligned on interleaves\nInterleave, duration             : 24 ms (0.72 video frame)\nInterleave, preload duration     : 504 ms\n\n\nPoster:\n\n &lt;a href=&quot;\nhttp://i.imgur.com/8JcBr.jpg&quot; rel=&quot;nofollow&quot; target=&quot;_NEW&quot;&gt;\nhttp://i.imgur.com/8JcBr.jpg&lt;/a&gt;\n\n\nScreens:\n\n &lt;a href=&quot;\nhttp://i.imgur.com/vL5Hj.png&quot; rel=&quot;nofollow&quot; target=&quot;_NEW&quot;&gt;\nhttp://i.imgur.com/vL5Hj.png&lt;/a&gt;\n &lt;a href=&quot;\nhttp://i.imgur.com/jPlCu.png&quot; rel=&quot;nofollow&quot; target=&quot;_NEW&quot;&gt;\nhttp://i.imgur.com/jPlCu.png&lt;/a&gt;\n &lt;a href=&quot;\nhttp://i.imgur.com/0SWSq.png&quot; rel=&quot;nofollow&quot; target=&quot;_NEW&quot;&gt;\nhttp://i.imgur.com/0SWSq.png&lt;/a&gt;\n\n\nENJOY!","torrent":{"xt":"urn:btih:082bd56ea66dbc21e400aa332134d79b22ecad76","amp;dn":"The+Mill+and+the+Cross+2011+R5+XviD+-+VISUALiSE+","amp;tr":["udp%3A%2F%2Ftracker.openbittorrent.com%3A80","udp%3A%2F%2Fopen.demonii.com%3A1337","udp%3A%2F%2Ftracker.coppersurfer.tk%3A6969","udp%3A%2F%2Fexodus.desync.com%3A6969"],"infoHash":"082bd56ea66dbc21e400aa332134d79b22ecad76","infoHashBuffer":{"type":"Buffer","data":[8,43,213,110,166,109,188,33,228,0,170,51,33,52,215,155,34,236,173,118]},"announce":[],"urlList":[]}}